<svg xmlns="http://www.w3.org/2000/svg" width="320" height="180" viewBox="0 0 320 180" shape-rendering="crispEdges">
  <rect width="320" height="180" fill="#dbeafe"/>
  <rect y="24" width="320" height="54" fill="#bfdbfe"/>
  <rect y="78" width="320" height="40" fill="#93c5fd"/>

  <rect x="24" y="22" width="28" height="6" fill="#f8fafc"/>
  <rect x="20" y="28" width="36" height="7" fill="#eff6ff"/>
  <rect x="118" y="16" width="34" height="6" fill="#f8fafc"/>
  <rect x="112" y="22" width="46" height="8" fill="#eff6ff"/>
  <rect x="236" y="30" width="30" height="6" fill="#f8fafc"/>
  <rect x="230" y="36" width="42" height="8" fill="#eff6ff"/>

  <rect x="0" y="104" width="320" height="14" fill="#94a3b8"/>
  <rect x="0" y="118" width="320" height="62" fill="#64748b"/>

  <rect x="8" y="76" width="30" height="42" fill="#334155"/>
  <rect x="44" y="62" width="24" height="56" fill="#1f2937"/>
  <rect x="74" y="70" width="28" height="48" fill="#334155"/>
  <rect x="108" y="58" width="22" height="60" fill="#1e293b"/>
  <rect x="136" y="74" width="18" height="44" fill="#334155"/>
  <rect x="158" y="64" width="26" height="54" fill="#1f2937"/>
  <rect x="190" y="68" width="24" height="50" fill="#334155"/>
  <rect x="220" y="54" width="26" height="64" fill="#1e293b"/>
  <rect x="252" y="72" width="22" height="46" fill="#334155"/>
  <rect x="278" y="60" width="28" height="58" fill="#1f2937"/>

  <rect x="14" y="86" width="3" height="4" fill="#fef3c7"/>
  <rect x="22" y="86" width="3" height="4" fill="#fde68a"/>
  <rect x="49" y="74" width="3" height="4" fill="#fef3c7"/>
  <rect x="57" y="74" width="3" height="4" fill="#fde68a"/>
  <rect x="81" y="80" width="3" height="4" fill="#fef3c7"/>
  <rect x="89" y="80" width="3" height="4" fill="#fde68a"/>
  <rect x="114" y="72" width="3" height="4" fill="#fef3c7"/>
  <rect x="122" y="72" width="3" height="4" fill="#fde68a"/>
  <rect x="164" y="76" width="3" height="4" fill="#fef3c7"/>
  <rect x="172" y="76" width="3" height="4" fill="#fde68a"/>
  <rect x="196" y="78" width="3" height="4" fill="#fef3c7"/>
  <rect x="204" y="78" width="3" height="4" fill="#fde68a"/>
  <rect x="226" y="66" width="3" height="4" fill="#fef3c7"/>
  <rect x="234" y="66" width="3" height="4" fill="#fde68a"/>
  <rect x="284" y="72" width="3" height="4" fill="#fef3c7"/>
  <rect x="292" y="72" width="3" height="4" fill="#fde68a"/>

  <rect x="0" y="116" width="320" height="2" fill="#e2e8f0"/>
</svg>
