<svg xmlns="http://www.w3.org/2000/svg" width="320" height="180" viewBox="0 0 320 180" shape-rendering="crispEdges">
  <rect width="320" height="180" fill="#08111d"/>
  <rect y="0" width="320" height="48" fill="#102033"/>
  <rect y="48" width="320" height="42" fill="#18324a"/>
  <rect y="90" width="320" height="30" fill="#31465a"/>
  <rect y="120" width="320" height="60" fill="#1f2c38"/>

  <rect x="10" y="16" width="44" height="10" fill="#d97706" opacity="0.25"/>
  <rect x="110" y="10" width="58" height="12" fill="#fb7185" opacity="0.14"/>
  <rect x="238" y="22" width="48" height="10" fill="#fde68a" opacity="0.18"/>

  <rect x="0" y="104" width="320" height="76" fill="#0f1720"/>
  <rect x="0" y="118" width="320" height="4" fill="#5b7085"/>

  <rect x="6" y="70" width="26" height="48" fill="#253243"/>
  <rect x="38" y="52" width="30" height="66" fill="#1b2633"/>
  <rect x="74" y="62" width="34" height="56" fill="#253243"/>
  <rect x="114" y="44" width="20" height="74" fill="#1a2430"/>
  <rect x="138" y="56" width="32" height="62" fill="#243243"/>
  <rect x="174" y="68" width="22" height="50" fill="#202c38"/>
  <rect x="202" y="48" width="28" height="70" fill="#192430"/>
  <rect x="236" y="60" width="36" height="58" fill="#273544"/>
  <rect x="278" y="50" width="30" height="68" fill="#1b2632"/>

  <rect x="12" y="82" width="4" height="6" fill="#f59e0b"/>
  <rect x="20" y="82" width="4" height="6" fill="#fde68a"/>
  <rect x="46" y="64" width="4" height="6" fill="#f8fafc"/>
  <rect x="54" y="64" width="4" height="6" fill="#93c5fd"/>
  <rect x="80" y="76" width="4" height="6" fill="#f8fafc"/>
  <rect x="88" y="76" width="4" height="6" fill="#fde68a"/>
  <rect x="118" y="56" width="3" height="6" fill="#f59e0b"/>
  <rect x="124" y="56" width="3" height="6" fill="#ef4444"/>
  <rect x="144" y="66" width="4" height="6" fill="#f8fafc"/>
  <rect x="152" y="66" width="4" height="6" fill="#93c5fd"/>
  <rect x="180" y="80" width="3" height="5" fill="#fde68a"/>
  <rect x="186" y="80" width="3" height="5" fill="#f59e0b"/>
  <rect x="208" y="60" width="4" height="6" fill="#f8fafc"/>
  <rect x="216" y="60" width="4" height="6" fill="#fca5a5"/>
  <rect x="246" y="72" width="4" height="6" fill="#fde68a"/>
  <rect x="254" y="72" width="4" height="6" fill="#93c5fd"/>
  <rect x="286" y="60" width="4" height="6" fill="#f8fafc"/>
  <rect x="294" y="60" width="4" height="6" fill="#f59e0b"/>

  <rect x="18" y="118" width="34" height="14" fill="#334155"/>
  <rect x="24" y="112" width="22" height="8" fill="#475569"/>
  <rect x="70" y="124" width="46" height="10" fill="#1e293b"/>
  <rect x="142" y="126" width="62" height="8" fill="#334155"/>
  <rect x="214" y="122" width="40" height="12" fill="#1e293b"/>
  <rect x="262" y="124" width="24" height="10" fill="#334155"/>

  <rect x="120" y="104" width="24" height="14" fill="#64748b"/>
  <rect x="124" y="108" width="16" height="8" fill="#f59e0b"/>
  <rect x="122" y="116" width="20" height="2" fill="#111827"/>

  <rect x="0" y="132" width="320" height="48" fill="#131b22"/>
  <rect x="0" y="132" width="320" height="2" fill="#94a3b8"/>
</svg>
