<svg xmlns="http://www.w3.org/2000/svg" width="80" height="56" viewBox="0 0 80 56" shape-rendering="crispEdges">
  <rect width="80" height="56" fill="none"/>
  <rect x="4" y="28" width="72" height="20" fill="#374151"/>
  <rect x="8" y="22" width="64" height="8" fill="#4b5563"/>
  <rect x="14" y="14" width="52" height="8" fill="#6b7280"/>
  <rect x="22" y="8" width="36" height="6" fill="#9ca3af"/>
  <rect x="26" y="2" width="28" height="6" fill="#cbd5e1"/>
  <rect x="30" y="30" width="20" height="18" fill="#0f172a"/>
  <rect x="32" y="32" width="16" height="14" fill="#111827"/>
  <rect x="10" y="30" width="14" height="14" fill="#1f2937"/>
  <rect x="56" y="30" width="14" height="14" fill="#1f2937"/>
  <rect x="13" y="33" width="8" height="8" fill="#22d3ee"/>
  <rect x="59" y="33" width="8" height="8" fill="#22d3ee"/>
  <rect x="33" y="18" width="14" height="6" fill="#facc15"/>
  <rect x="36" y="20" width="8" height="2" fill="#78350f"/>
  <rect x="20" y="48" width="40" height="2" fill="#94a3b8"/>
  <rect x="0" y="50" width="80" height="4" fill="#475569"/>
</svg>
