<svg xmlns="http://www.w3.org/2000/svg" width="40" height="40" viewBox="0 0 40 40" shape-rendering="crispEdges">
  <rect width="40" height="40" fill="none"/>
  <rect x="12" y="4" width="16" height="3" fill="#7a8f5a"/>
  <rect x="10" y="7" width="20" height="4" fill="#53653c"/>
  <rect x="8" y="11" width="24" height="6" fill="#62764b"/>
  <rect x="7" y="17" width="26" height="7" fill="#455833"/>
  <rect x="10" y="24" width="20" height="8" fill="#36492a"/>
  <rect x="6" y="20" width="3" height="10" fill="#62764b"/>
  <rect x="31" y="18" width="3" height="12" fill="#62764b"/>
  <rect x="11" y="32" width="7" height="6" fill="#3f1f1f"/>
  <rect x="22" y="32" width="7" height="6" fill="#3f1f1f"/>
  <rect x="14" y="12" width="3" height="3" fill="#f8fafc"/>
  <rect x="23" y="12" width="3" height="3" fill="#f8fafc"/>
  <rect x="16" y="18" width="8" height="3" fill="#7f1d1d"/>
  <rect x="14" y="24" width="12" height="2" fill="#ef4444"/>
  <rect x="11" y="8" width="18" height="1" fill="#94a3b8"/>
</svg>
