<svg xmlns="http://www.w3.org/2000/svg" width="32" height="32" viewBox="0 0 32 32" shape-rendering="crispEdges">
  <rect width="32" height="32" fill="none"/>
  <rect x="10" y="3" width="2" height="2" fill="#06b6d4"/>
  <rect x="20" y="3" width="2" height="2" fill="#06b6d4"/>
  <rect x="8" y="5" width="16" height="2" fill="#0e7490"/>
  <rect x="6" y="7" width="20" height="3" fill="#155e75"/>
  <rect x="8" y="10" width="16" height="7" fill="#0f766e"/>
  <rect x="10" y="17" width="12" height="8" fill="#115e59"/>
  <rect x="8" y="25" width="6" height="5" fill="#164e63"/>
  <rect x="18" y="25" width="6" height="5" fill="#164e63"/>
  <rect x="6" y="12" width="2" height="7" fill="#155e75"/>
  <rect x="24" y="12" width="2" height="7" fill="#155e75"/>
  <rect x="11" y="10" width="2" height="2" fill="#e0f2fe"/>
  <rect x="19" y="10" width="2" height="2" fill="#e0f2fe"/>
  <rect x="14" y="13" width="4" height="2" fill="#7f1d1d"/>
  <rect x="9" y="20" width="14" height="1" fill="#22d3ee"/>
  <rect x="12" y="6" width="8" height="1" fill="#67e8f9"/>
</svg>
