<svg xmlns="http://www.w3.org/2000/svg" width="160" height="160" viewBox="0 0 160 160">
  <rect width="160" height="160" fill="#0b0f16"/>
  <g fill="#ffffff" fill-opacity="0.08">
    <circle cx="8" cy="11" r="1"/>
    <circle cx="17" cy="36" r="1"/>
    <circle cx="31" cy="17" r="1"/>
    <circle cx="42" cy="52" r="1"/>
    <circle cx="57" cy="25" r="1"/>
    <circle cx="64" cy="67" r="1"/>
    <circle cx="79" cy="44" r="1"/>
    <circle cx="92" cy="71" r="1"/>
    <circle cx="103" cy="18" r="1"/>
    <circle cx="117" cy="53" r="1"/>
    <circle cx="130" cy="32" r="1"/>
    <circle cx="149" cy="61" r="1"/>
    <circle cx="12" cy="89" r="1"/>
    <circle cx="27" cy="110" r="1"/>
    <circle cx="37" cy="83" r="1"/>
    <circle cx="55" cy="126" r="1"/>
    <circle cx="69" cy="96" r="1"/>
    <circle cx="83" cy="132" r="1"/>
    <circle cx="97" cy="104" r="1"/>
    <circle cx="112" cy="121" r="1"/>
    <circle cx="126" cy="88" r="1"/>
    <circle cx="144" cy="114" r="1"/>
    <circle cx="7" cy="145" r="1"/>
    <circle cx="24" cy="151" r="1"/>
    <circle cx="46" cy="147" r="1"/>
    <circle cx="62" cy="153" r="1"/>
    <circle cx="81" cy="149" r="1"/>
    <circle cx="99" cy="154" r="1"/>
    <circle cx="121" cy="145" r="1"/>
    <circle cx="147" cy="150" r="1"/>
  </g>
</svg>
